<!-- Generated by IcoMoon.io -->
<svg version="1.1" xmlns="http://www.w3.org/2000/svg" width="16" height="16" viewBox="0 0 32 32">
<path fill="#e30613" d="M3.258 5.062c2.153 3.665 2.56 4.713 2.036 5.527-0.582 0.931-0.349 1.047 2.851 1.047h3.491v-3.491c0-3.2-0.058-3.433-1.047-2.851-0.873 0.524-1.745 0.233-5.062-1.804-2.269-1.338-4.305-2.56-4.538-2.735-0.233-0.116 0.756 1.804 2.269 4.305z"></path>
<path fill="#e30613" d="M26.007 3.665c-2.967 1.745-4.131 2.153-4.596 1.687-1.164-1.164-1.338-0.815-1.164 2.793l0.233 3.491h3.433c3.2 0 3.375-0.058 2.735-1.105-0.524-0.873-0.407-1.513 0.698-3.316 0.756-1.28 1.862-3.142 2.444-4.189 0.64-0.989 0.931-1.862 0.64-1.804-0.233 0.058-2.269 1.105-4.422 2.444z"></path>
<path fill="#e30613" d="M5.295 21.411c0.524 0.873 0.233 1.745-1.745 5.004-1.338 2.211-2.385 4.073-2.269 4.189s2.036-0.873 4.189-2.211c3.375-1.978 4.189-2.269 5.12-1.687 0.989 0.582 1.047 0.407 1.047-2.851v-3.491h-3.491c-3.2 0-3.433 0.058-2.851 1.047z"></path>
<path fill="#e30613" d="M20.247 23.855c-0.058 1.92 0 3.491 0.291 3.491 0.233 0 0.407-0.291 0.407-0.582 0-1.105 1.745-0.582 5.585 1.804 2.095 1.28 3.956 2.269 4.073 2.153s-0.989-2.153-2.385-4.538c-1.92-3.2-2.385-4.48-1.92-5.062s-0.058-0.756-2.618-0.756h-3.2l-0.233 3.491z"></path>
</svg>
